<svg width="50" height="50" viewBox="0 0 50 50" fill="none" xmlns="http://www.w3.org/2000/svg">
<path d="M36.7087 22.3959C35.8128 22.3959 35.1045 21.6667 35.1045 20.7917C35.1045 20.0209 34.3337 18.4167 33.042 17.0209C31.7712 15.6667 30.3753 14.875 29.2087 14.875C28.3128 14.875 27.6045 14.1459 27.6045 13.2709C27.6045 12.3959 28.3337 11.6667 29.2087 11.6667C31.292 11.6667 33.4795 12.7917 35.3962 14.8125C37.1878 16.7084 38.3337 19.0625 38.3337 20.7709C38.3337 21.6667 37.6045 22.3959 36.7087 22.3959Z" fill="white"/>
<path d="M44.2292 22.3959C43.3333 22.3959 42.625 21.6667 42.625 20.7917C42.625 13.3959 36.6042 7.39585 29.2292 7.39585C28.3333 7.39585 27.625 6.66669 27.625 5.79169C27.625 4.91669 28.3333 4.16669 29.2083 4.16669C38.375 4.16669 45.8333 11.625 45.8333 20.7917C45.8333 21.6667 45.1042 22.3959 44.2292 22.3959Z" fill="white"/>
<path d="M23.0212 31.1459L19.167 35C18.3545 35.8125 17.0628 35.8125 16.2295 35.0209C16.0003 34.7917 15.7712 34.5834 15.542 34.3542C13.3962 32.1875 11.4587 29.9167 9.72949 27.5417C8.02116 25.1667 6.64616 22.7917 5.64616 20.4375C4.66699 18.0625 4.16699 15.7917 4.16699 13.625C4.16699 12.2084 4.41699 10.8542 4.91699 9.60419C5.41699 8.33335 6.20866 7.16669 7.31283 6.12502C8.64616 4.81252 10.1045 4.16669 11.6462 4.16669C12.2295 4.16669 12.8128 4.29169 13.3337 4.54169C13.8753 4.79169 14.3545 5.16669 14.7295 5.70835L19.5628 12.5209C19.9378 13.0417 20.2087 13.5209 20.3962 13.9792C20.5837 14.4167 20.6878 14.8542 20.6878 15.25C20.6878 15.75 20.542 16.25 20.2503 16.7292C19.9795 17.2084 19.5837 17.7084 19.0837 18.2084L17.5003 19.8542C17.2712 20.0834 17.167 20.3542 17.167 20.6875C17.167 20.8542 17.1878 21 17.2295 21.1667C17.292 21.3334 17.3545 21.4584 17.3962 21.5834C17.7712 22.2709 18.417 23.1667 19.3337 24.25C20.2712 25.3334 21.2712 26.4375 22.3545 27.5417C22.5628 27.75 22.792 27.9584 23.0003 28.1667C23.8337 28.9792 23.8545 30.3125 23.0212 31.1459Z" fill="white"/>
<path d="M45.7708 38.1875C45.7708 38.7708 45.6667 39.375 45.4583 39.9583C45.3958 40.125 45.3333 40.2917 45.25 40.4583C44.8958 41.2083 44.4375 41.9167 43.8333 42.5833C42.8125 43.7083 41.6875 44.5208 40.4167 45.0417C40.3958 45.0417 40.375 45.0625 40.3542 45.0625C39.125 45.5625 37.7917 45.8333 36.3542 45.8333C34.2292 45.8333 31.9583 45.3333 29.5625 44.3125C27.1667 43.2917 24.7708 41.9167 22.3958 40.1875C21.5833 39.5833 20.7708 38.9792 20 38.3333L26.8125 31.5208C27.3958 31.9583 27.9167 32.2917 28.3542 32.5208C28.4583 32.5625 28.5833 32.625 28.7292 32.6875C28.8958 32.75 29.0625 32.7708 29.25 32.7708C29.6042 32.7708 29.875 32.6458 30.1042 32.4167L31.6875 30.8542C32.2083 30.3333 32.7083 29.9375 33.1875 29.6875C33.6667 29.3958 34.1458 29.25 34.6667 29.25C35.0625 29.25 35.4792 29.3333 35.9375 29.5208C36.3958 29.7083 36.875 29.9792 37.3958 30.3333L44.2917 35.2292C44.8333 35.6042 45.2083 36.0417 45.4375 36.5625C45.6458 37.0833 45.7708 37.6042 45.7708 38.1875Z" fill="white"/>
</svg>
