<svg width="50" height="50" viewBox="0 0 50 50" fill="none" xmlns="http://www.w3.org/2000/svg">
<path d="M40.6253 16.6667C43.5018 16.6667 45.8337 14.3348 45.8337 11.4583C45.8337 8.58185 43.5018 6.25 40.6253 6.25C37.7488 6.25 35.417 8.58185 35.417 11.4583C35.417 14.3348 37.7488 16.6667 40.6253 16.6667Z" fill="white"/>
<path d="M40.6253 16.6667C43.5018 16.6667 45.8337 14.3348 45.8337 11.4583C45.8337 8.58185 43.5018 6.25 40.6253 6.25C37.7488 6.25 35.417 8.58185 35.417 11.4583C35.417 14.3348 37.7488 16.6667 40.6253 16.6667Z" fill="white"/>
<path d="M43.167 19.3959C41.7087 19.8542 40.1045 19.9375 38.4378 19.5209C35.6462 18.7917 33.3753 16.5625 32.6045 13.7709C32.2295 12.4167 32.2087 11.0834 32.4378 9.87502C32.7087 8.54169 31.7712 7.29169 30.4378 7.29169H14.5837C8.33366 7.29169 4.16699 10.4167 4.16699 17.7084V32.2917C4.16699 39.5834 8.33366 42.7084 14.5837 42.7084H35.417C41.667 42.7084 45.8337 39.5834 45.8337 32.2917V21.375C45.8337 20 44.5003 18.9584 43.167 19.3959ZM32.3337 23.2292L29.8753 25.1875C28.5003 26.2917 26.7503 26.8334 25.0003 26.8334C23.2503 26.8334 21.4795 26.2917 20.1253 25.1875L13.6045 19.9792C12.9378 19.4375 12.8337 18.4375 13.3545 17.7709C13.8962 17.1042 14.8753 16.9792 15.542 17.5209L22.0628 22.7292C23.6462 24 26.3337 24 27.917 22.7292L30.3753 20.7709C31.042 20.2292 32.042 20.3334 32.5628 21.0209C33.1045 21.6875 33.0003 22.6875 32.3337 23.2292Z" fill="white"/>
</svg>
